<svg xmlns="http://www.w3.org/2000/svg" version="1.1" xmlns:xlink="http://www.w3.org/1999/xlink" xmlns:svgjs="http://svgjs.dev/svgjs" width="1000" height="1000" viewBox="0 0 1000 1000"><rect width="1000" height="1000" fill="#ffffff"></rect><g transform="matrix(0.7,0,0,0.7,149.57575757575756,282.1265587044535)"><svg viewBox="0 0 396 247" data-background-color="#fbeaab" preserveAspectRatio="xMidYMid meet" height="623" width="1000" xmlns="http://www.w3.org/2000/svg" xmlns:xlink="http://www.w3.org/1999/xlink"><g id="tight-bounds" transform="matrix(1,0,0,1,0.2400000000000091,-0.09999999999999432)"><svg viewBox="0 0 395.52 247.2" height="247.2" width="395.52"><g><svg></svg></g><g><svg viewBox="0 0 395.52 247.2" height="247.2" width="395.52"><g transform="matrix(1,0,0,1,75.54432,78.92956825737264)"><svg viewBox="0 0 244.43135999999998 89.3408634852547" height="89.3408634852547" width="244.43135999999998"><g><svg viewBox="0 0 244.43135999999998 89.3408634852547" height="89.3408634852547" width="244.43135999999998"><g><svg viewBox="0 0 244.43135999999998 89.3408634852547" height="89.3408634852547" width="244.43135999999998"><g><svg viewBox="0 0 244.43135999999998 89.3408634852547" height="89.3408634852547" width="244.43135999999998"><g id="textblocktransform"><svg viewBox="0 0 244.43135999999998 89.3408634852547" height="89.3408634852547" width="244.43135999999998" id="textblock"><g><svg viewBox="0 0 244.43135999999998 89.3408634852547" height="89.3408634852547" width="244.43135999999998"><g transform="matrix(1,0,0,1,0,0)"><svg width="244.43135999999998" viewBox="-2.8499999046325684 -36.79999923706055 111.88999938964844 40.89999771118164" height="89.3408634852547" data-palette-color="#454545"><path d="M35.55-4.2L35.55-4.2Q35.55-2.25 32.9-1.6L32.9-1.6Q32.75-1.6 32.75-1.8 32.75-2 33.1-2.25L33.1-2.25Q34.1-3 34.1-3.9L34.1-3.9Q34.1-5.65 31.3-6.45L31.3-6.45Q27.6-1.9 21.03 1.1 14.45 4.1 9.35 4.1 4.25 4.1 4.25 2L4.25 2Q4.25 0.25 7.73-2.18 11.2-4.6 16.68-6.43 22.15-8.25 27-8.25L27-8.25Q29.4-8.25 31.1-7.9L31.1-7.9Q32.65-10.65 32.65-13.65L32.65-13.65Q32.65-15.4 31.1-16.57 29.55-17.75 26.95-17.75 24.35-17.75 22-16.7L22-16.7Q21.5-16.35 21.2-16.35L21.2-16.35Q20.65-16.35 20.65-16.63 20.65-16.9 21.4-17.3L21.4-17.3Q22.5-17.65 25.63-20 28.75-22.35 31.73-25.73 34.7-29.1 34.7-31.4L34.7-31.4Q34.7-35.15 26.6-35.15L26.6-35.15Q20.9-35.15 14.48-32.83 8.05-30.5 3.65-26.78-0.75-23.05-0.75-19.5L-0.75-19.5Q-0.75-17.6 1.6-17.6L1.6-17.6Q4.95-17.6 8.2-19.28 11.45-20.95 16.7-25.35L16.7-25.35Q17.35-26.1 17.6-26.1L17.6-26.1Q18.15-26.1 18.15-25.75L18.15-25.75Q18.15-25.65 17.8-25.05L17.8-25.05Q16.5-23.75 14.15-21.9 11.8-20.05 9.8-18.8 7.8-17.55 5.28-16.55 2.75-15.55 0.7-15.55L0.7-15.55Q-2.85-15.55-2.85-18.7L-2.85-18.7Q-2.85-22.8 2.5-27.13 7.85-31.45 15.08-34.13 22.3-36.8 28-36.8L28-36.8Q37.05-36.8 37.05-32.35L37.05-32.35Q37.05-29.1 32.73-24.68 28.4-20.25 24.95-18.6L24.95-18.6Q26.5-18.9 27.85-18.9L27.85-18.9Q31-18.9 32.7-17.7 34.4-16.5 34.4-14.45L34.4-14.45Q34.4-10.95 32.15-7.6L32.15-7.6Q35.55-6.6 35.55-4.2ZM26.45-7.05L26.45-7.05Q22.65-7.05 17.85-5.45 13.05-3.85 9.83-1.8 6.6 0.25 6.6 1.53 6.6 2.8 9.68 2.8 12.75 2.8 16.43 1.83 20.1 0.85 24.13-1.43 28.15-3.7 30.3-6.7L30.3-6.7Q28.4-7.05 26.45-7.05ZM26.75-32.15L27-31.95Q27-31.8 21.18-21.75 15.35-11.7 12.6-7.1L12.6-7.1Q12.3-6.45 11.5-6.1 10.7-5.75 10.28-5.75 9.85-5.75 9.85-5.98 9.85-6.2 13.55-12.43 17.25-18.65 20.93-24.8 24.6-30.95 24.5-31L24.5-31Q24.8-31.5 25.5-31.75L25.5-31.75 26.75-32.15ZM36.9-3.35L36.9-3.35Q36.7-3.25 36.52-3.25 36.35-3.25 36.35-3.45 36.35-3.65 36.5-3.8L36.5-3.8Q38.55-4.95 41-7.55L41-7.55Q38.75-8.25 38.75-9.53 38.75-10.8 40.45-12.38 42.15-13.95 43.65-13.95L43.65-13.95Q44.65-13.95 44.65-12.75L44.65-12.75Q44.65-10.9 42.8-8.8L42.8-8.8Q45.2-8.4 45.2-7.65L45.2-7.65Q45.2-6.65 44.32-6.13 43.45-5.6 42.3-4.25 41.15-2.9 41.15-1.55L41.15-1.55Q41.15-1.25 41.35-1 41.55-0.75 42.2-0.75 42.85-0.75 44.95-1.73 47.05-2.7 48.65-3.7L48.65-3.7 50.25-4.7Q50.3-4.6 50.3-4.3 50.3-4 49.85-3.8L49.85-3.8Q43.1 0.8 40.45 0.8L40.45 0.8Q39.15 0.8 39.15-0.5L39.15-0.5Q39.15-1.55 39.87-2.7 40.6-3.85 41.47-4.6 42.35-5.35 43.07-6.03 43.8-6.7 43.8-6.9 43.8-7.1 43.17-7.15 42.55-7.2 41.55-7.4L41.55-7.4Q38.8-4.45 36.9-3.35ZM40-10.3L40-10.3Q40-9.3 42.2-8.9L42.2-8.9Q43.5-10.5 43.5-11.68 43.5-12.85 42.75-12.85 42-12.85 41-11.98 40-11.1 40-10.3ZM58.25-5.95L58.25-5.95Q57.95-5.95 57.95-6.3L57.95-6.3 58.1-6.65Q59-7.5 59-8.1L59-8.1Q59-8.85 58.2-8.85L58.2-8.85Q56.45-8.85 53.47-6.43 50.5-4 50.5-2.1L50.5-2.1Q50.5-1.3 51.55-1.3 52.6-1.3 53.97-2.18 55.35-3.05 56.32-3.93 57.3-4.8 57.4-4.8L57.4-4.8Q57.9-4.75 57.9-4.3L57.9-4.3Q57.9-4.1 57.12-3 56.35-1.9 56.35-1.25L56.35-1.25Q56.35-0.75 57.17-0.75 58-0.75 60.1-1.73 62.2-2.7 63.8-3.7L63.8-3.7 65.4-4.7Q65.45-4.6 65.45-4.3 65.45-4 65-3.8L65-3.8Q58.25 0.8 55.6 0.8L55.6 0.8Q54.3 0.8 54.3-0.5L54.3-0.5Q54.3-1.05 54.5-1.65L54.5-1.65Q54.15-1.25 52.42-0.43 50.7 0.4 49.35 0.4 48 0.4 48-0.85L48-0.85Q48-3.8 52.1-6.88 56.2-9.95 59-9.95L59-9.95Q60.65-9.95 60.65-8.55L60.65-8.55Q60.65-7.75 59.65-6.85 58.65-5.95 58.25-5.95ZM63.94-3.8L63.94-3.8Q64.89-4.35 66.44-5.55L66.44-5.55Q70.24-8.55 70.49-8.55L70.49-8.55Q71.24-8.55 71.24-7.9 71.24-7.25 70.47-5.9 69.69-4.55 68.72-3.1 67.74-1.65 67.59-1.35L67.59-1.35Q67.64-1.3 67.82-1.3 67.99-1.3 69.79-2.63 71.59-3.95 73.54-5.43 75.49-6.9 75.84-7.13 76.19-7.35 76.49-7.35L76.49-7.35Q77.09-7.3 77.09-6.65L77.09-6.65Q77.09-6.4 75.39-4.13 73.69-1.85 73.69-1.2L73.69-1.2Q73.69-0.75 74.77-0.75 75.84-0.75 77.94-1.73 80.04-2.7 81.64-3.7L81.64-3.7 83.24-4.7Q83.29-4.6 83.29-4.3 83.29-4 82.84-3.8L82.84-3.8Q76.09 0.8 73.44 0.8L73.44 0.8Q71.89 0.8 71.89-0.4L71.89-0.4Q71.89-1.55 72.57-2.6 73.24-3.65 73.74-4.38 74.24-5.1 74.24-5.15L74.24-5.15Q71.94-3.5 68.79-1.2 65.64 1.1 65.24 1.1L65.24 1.1Q64.94 1.1 64.94 0.4 64.94-0.3 66.92-3.25 68.89-6.2 68.89-6.4 68.89-6.6 68.79-6.6L68.79-6.6 68.29-6.35 65.79-4.35Q65.54-4.15 64.84-3.7 64.14-3.25 63.97-3.25 63.79-3.25 63.79-3.48 63.79-3.7 63.94-3.8ZM90.49-4.7L90.49-4.7Q90.14-3.35 90.14-1.8 90.14-0.25 91.44-0.25L91.44-0.25Q91.79-0.25 92.62-0.63 93.44-1 93.57-1 93.69-1 93.69-0.9L93.69-0.9Q93.69-0.3 92.64 0.35 91.59 1 90.54 1L90.54 1Q88.44 1 88.44-1.8L88.44-1.8Q88.44-2.45 88.49-2.8L88.49-2.8Q84.49 0.7 82.37 0.7 80.24 0.7 80.24-0.75L80.24-0.75Q80.24-2.9 83.92-6.13 87.59-9.35 90.89-9.8L90.89-9.8Q93.74-15.65 97.92-20.75 102.09-25.85 104.34-25.85L104.34-25.85Q104.74-25.85 104.99-25.43 105.24-25 105.24-24.6L105.24-24.6Q105.24-22.95 100.37-16.3 95.49-9.65 90.49-4.7ZM103.39-23.85L103.39-23.85Q103.39-24.25 103.09-24.25L103.09-24.25Q102.24-24.25 99.87-21.45 97.49-18.65 94.89-14.33 92.29-10 91.04-6.4L91.04-6.4Q95.69-11.3 99.54-16.55 103.39-21.8 103.39-23.85ZM82.64-1.15L82.64-1.15Q82.64-0.4 83.49-0.4L83.49-0.4Q84.84-0.4 88.74-4.15L88.74-4.15Q89.39-6.45 90.29-8.4L90.29-8.4Q87.84-7.8 85.24-5.2 82.64-2.6 82.64-1.15ZM109.04-0.75Q109.04-0.2 108.56 0.3 108.09 0.8 107.51 0.8 106.94 0.8 106.66 0.55 106.39 0.3 106.36-0.3 106.34-0.9 106.89-1.3 107.44-1.7 107.94-1.7L107.94-1.7Q109.04-1.7 109.04-0.75L109.04-0.75Z" opacity="1" transform="matrix(1,0,0,1,0,0)" fill="#000000" class="wordmark-text-0" data-fill-palette-color="primary" id="text-0"></path></svg></g></svg></g></svg></g></svg></g></svg></g></svg></g></svg></g><g><path d="M245.816 0c68.262 0 123.6 55.338 123.6 123.6 0 68.262-55.338 123.6-123.6 123.6-48.417 0-90.332-27.839-110.612-68.384l4.525 0c19.946 38.245 59.967 64.356 106.087 64.356 66.038 0 119.572-53.534 119.571-119.572 0-66.038-53.534-119.572-119.571-119.572-46.119 0-86.14 26.111-106.087 64.356l-4.525 0c20.279-40.545 62.194-68.384 110.612-68.384z" fill="#000000" stroke="transparent" data-fill-palette-color="tertiary"></path></g></svg></g><defs></defs></svg><rect width="395.52" height="247.2" fill="none" stroke="none" visibility="hidden"></rect></g></svg></g></svg>